<svg class="border shadow-md" viewBox="0 0 1202.08 676.17" style="width: 1202.08px; height: 676.17px;" xmlns="http://www.w3.org/2000/svg" preserveAspectRatio="none"><rect class="bg" id="bg" x="0" y="0" width="1202.08" height="676.17" fill="#ffffff"></rect><g transform="rotate(0 601.04 338.085)"><path d="M -701.04 -37.62 S -360.52 -88.62
            0.00 -37.62 340.52 -102.62
            701.04 -37.62 906.08 -71.43
            1402.08 -37.62 1742.60 -79.62
            2103.12 -37.62 h 110 V 876.17 H -701.04 Z" fill="#000000" id="-1"></path><path d="M -701.04 30.00 S -360.52 -6.00
            0.00 30.00 340.52 -3.81
            701.04 30.00 973.08 -34.00
            1402.08 30.00 1742.60 -3.81
            2103.12 30.00 h 110 V 876.17 H -701.04 Z" fill="#020007" id="0"></path><path d="M -701.04 97.62 S -671.00 63.81
            0.00 97.62 213.04 53.62
            701.04 97.62 1041.56 63.81
            1402.08 97.62 1742.60 63.81
            2103.12 97.62 h 110 V 876.17 H -701.04 Z" fill="#04000e" id="1"></path><path d="M -701.04 165.23 S -418.00 114.23
            0.00 165.23 247.04 107.23
            701.04 165.23 976.08 131.43
            1402.08 165.23 1742.60 131.43
            2103.12 165.23 h 110 V 876.17 H -701.04 Z" fill="#060015" id="2"></path><path d="M -701.04 232.85 S -397.00 199.04
            0.00 232.85 340.52 167.85
            701.04 232.85 1041.56 199.04
            1402.08 232.85 1742.60 199.04
            2103.12 232.85 h 110 V 876.17 H -701.04 Z" fill="#08001c" id="3"></path><path d="M -701.04 300.47 S -561.00 266.66
            0.00 300.47 340.52 266.66
            701.04 300.47 1041.56 266.66
            1402.08 300.47 1471.12 237.47
            2103.12 300.47 h 110 V 876.17 H -701.04 Z" fill="#0a0023" id="4"></path><path d="M -701.04 368.08 S -434.00 334.28
            0.00 368.08 340.52 334.28
            701.04 368.08 967.08 330.08
            1402.08 368.08 1684.12 302.08
            2103.12 368.08 h 110 V 876.17 H -701.04 Z" fill="#0c002a" id="5"></path><path d="M -701.04 435.70 S -360.52 401.89
            0.00 435.70 340.52 400.70
            701.04 435.70 1041.56 401.89
            1402.08 435.70 1742.60 401.89
            2103.12 435.70 h 110 V 876.17 H -701.04 Z" fill="#0e0031" id="6"></path><path d="M -701.04 503.32 S -360.52 469.51
            0.00 503.32 187.04 459.32
            701.04 503.32 887.08 469.51
            1402.08 503.32 1742.60 469.51
            2103.12 503.32 h 110 V 876.17 H -701.04 Z" fill="#100038" id="7"></path><path d="M -701.04 570.94 S -360.52 516.94
            0.00 570.94 340.52 524.94
            701.04 570.94 1041.56 511.94
            1402.08 570.94 1601.12 506.94
            2103.12 570.94 h 110 V 876.17 H -701.04 Z" fill="#12003f" id="8"></path><path d="M -701.04 638.55 S -487.00 603.55
            0.00 638.55 230.04 604.74
            701.04 638.55 833.08 604.74
            1402.08 638.55 1436.12 574.55
            2103.12 638.55 h 110 V 876.17 H -701.04 Z" fill="#140046" id="9"></path></g></svg>